<svg width="20" height="20" viewBox="0 0 20 20" fill="none" xmlns="http://www.w3.org/2000/svg">
  <path fill-rule="evenodd" clip-rule="evenodd" d="M8.85651 6.3379C9.37462 5.63969 9.5604 4.90384 8.97444 4.25431C7.65949 2.41433 6.77515 1.27649 6.22044 0.728537C5.16589 -0.313196 3.43112 -0.172285 2.51779 0.727647C2.02723 1.21101 1.86116 1.377 1.35747 1.88861C-1.44818 4.69577 0.262847 10.63 4.81139 15.183C9.3589 19.735 15.2926 21.4469 18.1041 18.6338C18.5689 18.1858 18.9624 17.792 19.2728 17.464C20.1678 16.518 20.3037 14.8597 19.2669 13.7824C18.7354 13.2301 17.6503 12.3885 15.7329 11.0169C15.1457 10.4918 14.4494 10.6056 13.811 11.0244C13.504 11.2259 13.2805 11.4297 12.8585 11.8521L12.0923 12.6187C11.9914 12.7197 10.621 12.0334 9.29071 10.7018C7.95972 9.36953 7.2739 7.99906 7.37435 7.89862L8.14112 7.13142C8.27499 6.99742 8.339 6.93254 8.42108 6.84627C8.59209 6.66654 8.73368 6.50344 8.85651 6.3379ZM13.5057 14.0329L14.2721 13.2661C14.5044 13.0337 14.6549 12.8907 14.7773 12.7922C16.457 13.9984 17.4297 14.7568 17.8271 15.1697C18.0656 15.4176 18.0286 15.8699 17.8212 16.089C17.5342 16.3924 17.1613 16.7655 16.7037 17.2068C14.8857 19.0256 10.0959 17.6437 6.22513 13.7691C2.35315 9.89332 0.971883 5.10279 2.7762 3.29748C3.27786 2.78798 3.4368 2.62912 3.92035 2.15265C4.10166 1.97401 4.59552 1.93389 4.81608 2.15176C5.24314 2.57364 6.03534 3.58799 7.20071 5.21133C7.14038 5.28623 7.06503 5.37087 6.97333 5.46724C6.90603 5.53798 6.84996 5.59481 6.72738 5.71751L5.96136 6.48396C4.65821 7.787 5.76802 10.0047 7.87697 12.1157C9.98448 14.2253 12.203 15.3364 13.5057 14.0329Z" fill="#4B5DA9"/>
</svg>
