<svg width="171" height="62" viewBox="0 0 171 62" fill="currentColor" xmlns="http://www.w3.org/2000/svg">
  <path fill-rule="evenodd" clip-rule="evenodd" d="M46.0228 50.5185H121.384C121.384 40.9506 127.122 31 138.216 31C149.31 31 156.196 39.037 156.196 49.3704C160.021 48.8601 168.36 47.3037 169.585 45.1605C171.115 42.4815 170.35 34.0617 169.967 31.7654C169.734 30.3645 168.911 29.3789 168.227 28.5591C167.805 28.0535 167.435 27.6109 167.289 27.1728C167.289 26.9029 167.353 26.3792 167.435 25.7011C167.702 23.4948 168.167 19.6542 167.289 17.6049C165.377 14.9259 162.316 12.2469 156.578 8.41975C150.84 4.59259 145.484 2.67901 141.276 1.91358C137.068 1.14815 125.592 0 108.76 0C92.6056 0 87.0222 0.705056 83.8934 1.10015C83.7622 1.11672 83.6353 1.13274 83.5121 1.14815C80.4518 1.53086 76.2438 3.06173 68.2103 8.03704C65.6395 9.62919 63.3038 11.1822 61.2157 12.5705C56.7786 15.5206 53.4594 17.7274 51.3784 17.9877C50.4739 18.1008 49.135 18.1805 47.3617 18.286C43.135 18.5375 36.4405 18.9359 27.2781 20.284C14.2716 22.1975 5.8556 25.642 3.94289 27.5556C2.84587 28.6531 2.71968 31.1861 2.61584 33.2707C2.57038 34.1833 2.5292 35.0099 2.41272 35.5926C1.26509 37.1235 0.499995 38.6543 0.5 42.0988C0.500005 45.5432 1.93987 48.5146 2.79527 49.3704C3.56035 50.1358 8.53342 50.5185 10.8287 50.5185C10.8287 41.3333 16.5669 31 28.4257 31C40.2846 31 46.0228 40.9506 46.0228 50.5185ZM99.1964 3.06173L94.2233 19.1358C87.4836 19.1358 77.2278 19.291 69.7779 19.4037L69.7748 19.4038C67.973 19.431 66.3353 19.4558 64.9514 19.4753C63.0729 19.5018 60.942 19.5185 61.3246 18.3704C61.6387 17.4275 66.8815 13.6899 69.3596 11.9232C69.8989 11.5387 70.3075 11.2474 70.5056 11.0988C73.5659 8.80248 78.6091 5.9725 82.747 4.59261C87.3376 3.06173 95.2435 3.06173 99.1964 3.06173ZM133.243 17.2222L101.874 19.1358L104.17 3.06173L125.592 3.44444L133.243 17.2222ZM130.183 3.82716L136.686 16.4568C140.129 16.0741 144.719 14.9259 145.484 12.6296C146.249 10.3333 143.954 8.03704 140.129 6.12346C136.303 4.20988 132.478 3.82716 130.183 3.82716Z" fill="currentColor"/>
  <path d="M42.1973 48.2222C42.1973 55.8315 36.0316 62 28.4257 62C20.8199 62 14.6541 55.8315 14.6541 48.2222C14.6541 40.613 20.8199 34.4444 28.4257 34.4444C36.0316 34.4444 42.1973 40.613 42.1973 48.2222Z" fill="currentColor"/>
  <path d="M152.37 48.2222C152.37 55.8315 146.204 62 138.599 62C130.993 62 124.827 55.8315 124.827 48.2222C124.827 40.613 130.993 34.4444 138.599 34.4444C146.204 34.4444 152.37 40.613 152.37 48.2222Z" fill="currentColor"/>
</svg>
