<svg width="126" height="56" viewBox="0 0 126 56" fill="none" xmlns="http://www.w3.org/2000/svg">
  <path fill-rule="evenodd" clip-rule="evenodd" d="M10.6976 47.0972C10.5702 41.6227 11.8439 30.6736 24.0714 30.6736C36.2989 30.6736 37.8274 40.6042 37.8274 47.0972H94.3797C94.2523 42.0046 95.1439 31.4375 106.607 30.6736C118.07 29.9097 120.745 38.6944 121.127 44.8056C122.274 44.169 124.643 42.5903 124.948 41.3681C125.331 39.8403 125.97 34.0084 124.948 31.8195C122.274 26.0903 117.664 18.8911 113.485 14.25C110.046 10.4306 103.55 3.9375 100.493 2.79168C95.6561 0.978505 87.1196 0.5 78.7131 0.5C70.3072 0.5 66.8676 0.5 61.1361 1.2639C56.9526 1.82148 49.2907 4.7014 44.7054 7.37501C40.12 10.0486 33.0678 14.8061 29.8031 18.0695C28.9952 18.877 27.2309 19.0016 24.9146 19.1652C21.7528 19.3885 17.5626 19.6845 13.3723 21.8889C6.11224 25.7083 2.29114 30.2917 1.14481 34.1111C-0.00151935 37.9306 0.380591 44.4236 2.29114 45.5695C3.81958 46.4861 8.53229 46.9699 10.6976 47.0972ZM34.3884 18.8333L76.0384 17.3055V3.55555C76.0384 3.55555 67.2498 3.17369 62.6645 3.55559C58.0792 3.9375 52.0419 6.45832 47.7622 8.90277C43.4826 11.3472 37.0632 16.5417 34.3884 18.8333ZM81.3879 3.55559L82.9164 17.3055H101.64C101.64 17.3055 102.022 16.1597 101.64 14.25C101.258 12.3403 99.3471 8.90278 93.9976 6.22917C89.6046 4.03366 85.6412 3.81277 82.9535 3.66299C82.3682 3.63037 81.8435 3.60112 81.3879 3.55559Z" fill="#4B5DA9"/>
  <path d="M35.9168 44.0417C35.9168 50.3699 30.7845 55.5 24.4535 55.5C18.1225 55.5 12.9902 50.3699 12.9902 44.0417C12.9902 37.7134 18.1225 32.5833 24.4535 32.5833C30.7845 32.5833 35.9168 37.7134 35.9168 44.0417Z" fill="#4B5DA9"/>
  <path d="M119.217 44.0417C119.217 50.3699 114.085 55.5 107.754 55.5C101.423 55.5 96.2902 50.3699 96.2902 44.0417C96.2902 37.7134 101.423 32.5833 107.754 32.5833C114.085 32.5833 119.217 37.7134 119.217 44.0417Z" fill="#4B5DA9"/>
</svg>
