<svg width="171" height="64" viewBox="0 0 171 64" fill="currentColor" xmlns="http://www.w3.org/2000/svg">
  <path d="M42.2584 49.5712C42.2584 57.54 35.7261 64 27.6681 64C19.6101 64 13.0778 57.54 13.0778 49.5712C13.0778 41.6024 19.6101 35.1424 27.6681 35.1424C35.7261 35.1424 42.2584 41.6024 42.2584 49.5712Z" fill="currentColor"/>
  <path d="M149.766 49.5712C149.766 57.54 143.234 64 135.176 64C127.118 64 120.586 57.54 120.586 49.5712C120.586 41.6024 127.118 35.1424 135.176 35.1424C143.234 35.1424 149.766 41.6024 149.766 49.5712Z" fill="currentColor"/>
  <path fill-rule="evenodd" clip-rule="evenodd" d="M45.7142 52.2291H116.746C116.746 41.9771 123.657 31.7251 135.176 31.7251C146.695 31.7251 153.222 41.2177 153.222 51.4697C156.293 51.4698 165.662 50.7863 167.812 48.0524C170.5 44.635 170.5 41.2177 170.5 39.6989C170.5 39.2017 170.207 38.9215 169.878 38.6057C169.452 38.1981 168.964 37.7311 168.964 36.6612L168.964 23.7512C168.964 22.4267 168.811 20.4858 168.196 19.5745C167.428 18.4354 163.589 14.6383 158.981 10.4616C154.374 6.28481 150.15 2.48776 148.23 2.10805C146.311 1.72835 131.336 0.589225 112.523 0.20952C93.7087 -0.170185 79.3337 -0.0986888 76.8146 0.968934C74.1269 2.10802 68.7515 4.76599 63.3761 8.56304C62.584 9.12256 61.7753 9.69857 60.9621 10.2777C56.2569 13.6287 51.4048 17.0844 48.7858 18.0557C47.0264 18.7082 44.3853 18.8623 40.5017 19.089C37.605 19.2581 34.017 19.4675 29.588 19.9542C19.2212 21.0933 9.62229 23.7513 7.70251 24.8904C6.58038 25.5562 5.85177 27.2599 5.13332 28.9397C4.62262 30.1339 4.11706 31.316 3.47895 32.1048C2.90302 32.8167 2.43507 33.3151 2.05487 33.72C1.42119 34.3949 1.03124 34.8102 0.791261 35.5221C0.407305 36.6613 0.398551 41.5281 0.791245 44.6351C1.17518 47.6727 2.71094 51.4698 3.47885 51.8495C4.09318 52.1532 5.95478 52.229 9.23829 52.2291C9.23829 42.3568 15.2672 31.7251 27.6681 31.7251C40.069 31.7251 45.714 41.9771 45.7142 52.2291ZM91.4049 18.8151L55.6969 20.3339C57.3607 18.5619 61.6098 14.3345 65.2958 11.6007C69.9033 8.18332 74.5108 4.76597 78.7343 4.00656C82.1131 3.39903 91.6608 3.24715 96.0123 3.24715L91.4049 18.8151ZM130.184 17.676L99.084 18.4354L101.004 3.24715L123.273 4.00656L130.184 17.676ZM134.463 17.2962H155.142C152.198 13.4992 145.082 5.7532 143.239 5.14567C141.396 4.53815 131.72 4.13313 127.113 4.00656L134.463 17.2962Z" fill="currentColor"/>
</svg>
