<svg width="185" height="58" viewBox="0 0 185 58" fill="currentColor" xmlns="http://www.w3.org/2000/svg">
  <path fill-rule="evenodd" clip-rule="evenodd" d="M47.736 49.6515H130.959C130.959 37.7879 134.426 28.5606 147.43 28.1212C160.434 27.6818 164.335 37.3485 164.335 48.3333C169.681 47.7475 180.806 45.8727 182.54 43.0606C184.707 39.5455 184.707 36.0303 184.273 34.2727C184.051 33.3688 183.369 32.9297 182.76 32.5371C182.184 32.1664 181.673 31.8372 181.673 31.197C181.673 31.0106 181.681 30.7013 181.693 30.3013C181.761 27.8721 181.922 22.0985 180.806 20.2121C179.506 18.0152 163.034 3.95455 156.533 2.19697C150.031 0.439394 128.792 0 115.355 0C101.918 0 91.9482 0.878788 88.0471 1.31818C84.146 1.75758 75.477 4.83333 69.4086 7.90909C66.6756 9.29437 63.1612 11.4589 59.9609 13.4301C56.0554 15.8355 52.6174 17.953 51.6371 18.0152C50.0433 18.1161 48.3809 18.1939 46.6445 18.2751C40.8251 18.5474 34.1752 18.8585 26.4969 20.2121C16.5275 21.9697 6.55804 25.9242 3.09045 29.8788C-0.377131 33.8333 0.489739 44.3788 0.923191 46.5758C1.26995 48.3333 9.7367 49.3586 13.9267 49.6515C13.9267 37.7879 17.3944 28.5606 30.3979 28.1212C43.4015 27.6818 47.736 37.7879 47.736 49.6515ZM99.3169 18.0152L59.4392 18.894C61.6065 17.2829 66.8946 13.5334 70.709 11.4243C75.477 8.78793 80.6784 6.15158 86.7467 4.8334C91.6014 3.77885 100.039 3.80815 103.651 3.95461L99.3169 18.0152ZM137.461 17.1364L106.252 18.0152L107.986 3.95461H130.092L137.461 17.1364ZM134.86 3.95461L141.795 16.697H162.167C161.734 14.9394 158.7 11.4243 155.232 9.22733C151.123 6.62367 147.43 4.83337 143.529 4.39399C140.408 4.04249 136.16 3.95461 134.86 3.95461Z" fill="currentColor"/>
  <path d="M160.867 44.8182C160.867 52.0983 155.045 58 147.864 58C140.682 58 134.86 52.0983 134.86 44.8182C134.86 37.5381 140.682 31.6364 147.864 31.6364C155.045 31.6364 160.867 37.5381 160.867 44.8182Z" fill="#4B5DA9"/>
  <path d="M43.835 44.8182C43.835 52.0983 38.0131 58 30.8314 58C23.6497 58 17.8278 52.0983 17.8278 44.8182C17.8278 37.5381 23.6497 31.6364 30.8314 31.6364C38.0131 31.6364 43.835 37.5381 43.835 44.8182Z" fill="#4B5DA9"/>
</svg>
