<svg width="176" height="54" viewBox="0 0 176 54" fill="currentColor" xmlns="http://www.w3.org/2000/svg">
  <path d="M41.8913 41.6571C41.8913 48.4739 36.4005 54 29.6272 54C22.8539 54 17.3631 48.4739 17.3631 41.6571C17.3631 34.8404 22.8539 29.3143 29.6272 29.3143C36.4005 29.3143 41.8913 34.8404 41.8913 41.6571Z" fill="currentColor"/>
  <path d="M151.131 41.6571C151.131 48.4739 145.64 54 138.867 54C132.094 54 126.603 48.4739 126.603 41.6571C126.603 34.8404 132.094 29.3143 138.867 29.3143C145.64 29.3143 151.131 34.8404 151.131 41.6571Z" fill="currentColor"/>
  <path fill-rule="evenodd" clip-rule="evenodd" d="M123.537 46.6714H44.2036C44.2036 46.097 44.2302 45.4692 44.2586 44.7979C44.3827 41.8626 44.5421 38.0956 42.6706 34.3286C40.3711 29.7 35.3888 26.6143 29.2567 26.6143C23.1247 26.6143 19.2922 28.5429 16.6094 33.1714C14.2037 37.3221 14.2634 42.4032 14.3014 45.6334C14.3058 46.0054 14.3099 46.3528 14.3099 46.6714C10.2219 46.4143 1.81585 45.6686 0.896043 44.7429C-0.253716 43.5857 1.2793 28.1571 3.19556 25.8429C6.38933 21.9857 16.2261 20.0571 29.2567 18.9C32.7872 18.5865 35.8956 18.3296 38.5973 18.1063C45.8674 17.5055 50.1922 17.1481 51.8687 16.5857C53.575 16.0133 57.8135 13.3171 61.9224 10.7034C63.3509 9.79475 64.7637 8.89603 66.049 8.1C71.0313 5.01429 75.2471 2.7 81.3791 1.54286C87.5112 0.385714 97.4757 0 104.758 0C112.039 0 119.704 0.771429 124.303 1.54286C128.902 2.31429 135.801 5.4 140.017 7.32857C141.502 8.0081 143.416 9.02284 145.389 10.0691C149.016 11.9921 152.843 14.0216 154.58 14.2714C155.875 14.4576 158.421 14.6438 160.967 14.83C163.694 15.0296 166.422 15.2291 167.611 15.4286C169.91 16.2 171.06 20.8286 171.443 22.3714C171.635 23.1428 171.923 24.2034 172.21 25.264C172.497 26.3248 172.785 27.3856 172.976 28.1571C173.223 29.1482 173.802 29.6954 174.275 30.1429C174.539 30.3921 174.77 30.6104 174.893 30.8571C175.276 31.6286 176.043 37.8 174.893 39.3429C173.743 40.8857 167.994 42.8143 164.928 43.5857C162.475 44.2029 156.497 45.5143 153.431 45.5143C153.431 45.2966 153.431 45.0713 153.432 44.8391C153.444 41.7419 153.46 37.4348 151.514 33.9429C149.041 29.504 143.883 26.2286 138.484 26.2286C133.392 26.2286 128.326 29.1833 125.836 33.5571C123.53 37.6087 123.534 42.9229 123.537 46.3384C123.537 46.4516 123.537 46.5626 123.537 46.6714ZM101.308 2.69998L100.925 16.2L137.717 14.6571C136.312 13.1143 132.812 9.56571 130.052 7.71428C126.603 5.4 123.1 4.2982 118.171 3.47144C113.572 2.70002 105.269 2.5714 101.308 2.69998ZM59.5337 17.7429L94.0265 16.2L97.4757 2.7C94.2819 2.57143 86.5914 3.31715 82.9121 4.24287C78.3131 5.40001 71.7978 8.87143 68.7318 10.8C66.279 12.3429 61.7055 15.8143 59.5337 17.7429Z" fill="currentColor"/>
</svg>
